<?xml version="1.0" encoding="iso-8859-1"?>
<!-- Generator: Adobe Illustrator 19.0.0, SVG Export Plug-In . SVG Version: 6.00 Build 0)  -->
<svg version="1.1" id="Layer_1" xmlns="http://www.w3.org/2000/svg" xmlns:xlink="http://www.w3.org/1999/xlink" x="0px" y="0px"
	 viewBox="0 0 512 512" style="enable-background:new 0 0 512 512;" xml:space="preserve">
<g>
	<g>
		<path d="M256,0C114.608,0,0,114.608,0,256s114.608,256,256,256s256-114.608,256-256S397.392,0,256,0z M256,496
			C123.664,496,16,388.336,16,256S123.664,16,256,16s240,107.664,240,240S388.336,496,256,496z"/>
	</g>
</g>
<g>
	<g>
		<path d="M333.264,300.576c-18.992,0-35.68,9.824-45.408,24.624l-90.688-42.544c3.12-6.848,4.976-14.4,4.976-22.416
			c0-6.784-1.392-13.216-3.68-19.216L290,198.08c9.968,13.168,25.584,21.824,43.296,21.824c29.984,0,54.368-24.384,54.368-54.368
			s-24.384-54.368-54.368-54.368c-29.968,0-54.352,24.384-54.352,54.368c0,6.512,1.344,12.672,3.44,18.464l-91.824,43.072
			c-9.952-12.8-25.328-21.2-42.768-21.2c-29.984,0-54.368,24.384-54.368,54.368c0,29.984,24.384,54.368,54.368,54.368
			c16.16,0,30.528-7.232,40.496-18.448l93.04,43.648c-1.408,4.832-2.416,9.84-2.416,15.12c0,29.984,24.384,54.368,54.352,54.368
			c29.984,0,54.368-24.384,54.368-54.368C387.632,324.96,363.248,300.576,333.264,300.576z M333.296,127.152
			c21.152,0,38.368,17.216,38.368,38.368c0,21.152-17.216,38.368-38.368,38.368c-21.152,0-38.352-17.216-38.352-38.368
			C294.944,144.368,312.144,127.152,333.296,127.152z M147.792,298.624c-21.152,0-38.368-17.216-38.368-38.368
			c0-21.152,17.216-38.368,38.368-38.368c21.152,0,38.368,17.216,38.368,38.368S168.96,298.624,147.792,298.624z M333.296,393.312
			c-21.152,0-38.352-17.216-38.352-38.368c0-21.152,17.2-38.352,38.352-38.352s38.368,17.2,38.368,38.352
			S354.448,393.312,333.296,393.312z"/>
	</g>
</g>
<g>
</g>
<g>
</g>
<g>
</g>
<g>
</g>
<g>
</g>
<g>
</g>
<g>
</g>
<g>
</g>
<g>
</g>
<g>
</g>
<g>
</g>
<g>
</g>
<g>
</g>
<g>
</g>
<g>
</g>
</svg>
